<svg class="desktop style-svg replaced-svg svg-replaced-0" id="svg-replaced-0" viewBox="0 0 213 77.131" height="77.131" width="213" xmlns:xlink="http://www.w3.org/1999/xlink" xmlns="http://www.w3.org/2000/svg"><defs><clipPath id="a"><rect fill="#fff" height="77.131" width="213"></rect></clipPath></defs><g clip-path="url(#a)"><path fill="#fff" transform="translate(-107.749 -11.469)" d="M202.4,19.787a1.359,1.359,0,0,0-1.035-.416,1.391,1.391,0,0,0-1.415,1.416V40.58L184.629,19.934a1.4,1.4,0,0,0-1.195-.563,1.425,1.425,0,0,0-1.453,1.49V44.725a1.331,1.331,0,0,0,.407.971,1.375,1.375,0,0,0,1.009.408,1.4,1.4,0,0,0,.982-.4,1.3,1.3,0,0,0,.434-.979V25.043L200.055,45.58l.035.041a1.7,1.7,0,0,0,.5.337,1.558,1.558,0,0,0,.659.146,1.489,1.489,0,0,0,1.527-1.564V20.787a1.416,1.416,0,0,0-.379-1Z"></path><path fill="#fff" transform="translate(-143.465 -11.308)" d="M255.049,20.063a1.7,1.7,0,0,0-.548-.689,1.444,1.444,0,0,0-.872-.277,1.469,1.469,0,0,0-1.462.976l-9.806,24a1.428,1.428,0,0,0-.057.454v.142a1.45,1.45,0,0,0,.405.94,1.418,1.418,0,0,0,1.046.37A1.39,1.39,0,0,0,245.108,45l2.651-6.556h11.555l2.692,6.567a1.683,1.683,0,0,0,.548.689,1.441,1.441,0,0,0,.872.277,1.5,1.5,0,0,0,1.029-.392,1.375,1.375,0,0,0,.461-1.061,2.313,2.313,0,0,0-.085-.536ZM258.116,35.5h-9.2l4.567-11.317Z"></path><path fill="#fff" transform="translate(-174.257 -11.469)" d="M314.52,19.77a1.49,1.49,0,0,0-1.055-.4H295.8a1.489,1.489,0,0,0-1.056.4,1.344,1.344,0,0,0-.433,1.016,1.388,1.388,0,0,0,.433,1.053,1.486,1.486,0,0,0,1.056.4H303.1V44.613a1.448,1.448,0,0,0,.426,1.064,1.5,1.5,0,0,0,1.1.426,1.515,1.515,0,0,0,1.074-.418,1.417,1.417,0,0,0,.452-1.072V22.239h7.307a1.532,1.532,0,0,0,1.046-.373,1.327,1.327,0,0,0,.443-1.043,1.391,1.391,0,0,0-.434-1.053Z"></path><path fill="#fff" transform="translate(-210.572 -11.469)" d="M375.456,19.8a1.452,1.452,0,0,0-1.064-.425,1.387,1.387,0,0,0-1.053.434,1.486,1.486,0,0,0-.4,1.056V36.226a7.092,7.092,0,0,1-.97,3.632,7.3,7.3,0,0,1-2.613,2.631,6.929,6.929,0,0,1-3.576.968,6.858,6.858,0,0,1-3.538-.968,7.212,7.212,0,0,1-3.545-6.264V20.861a1.42,1.42,0,0,0-.452-1.072,1.471,1.471,0,0,0-1.038-.418,1.542,1.542,0,0,0-1.138.426,1.448,1.448,0,0,0-.426,1.064V36.226a10.227,10.227,0,0,0,1.349,5.161,10.1,10.1,0,0,0,17.54,0,10.231,10.231,0,0,0,1.349-5.161V20.861a1.451,1.451,0,0,0-.426-1.063Z"></path><path fill="#fff" transform="translate(-248.982 -11.469)" d="M440.048,43.4a1.757,1.757,0,0,1-.739-1.083,13.245,13.245,0,0,1-.3-3.127,6.878,6.878,0,0,0-1.143-3.863,6.176,6.176,0,0,0-2.047-1.894,6.731,6.731,0,0,0,2.622-2.28,7.566,7.566,0,0,0,1.31-4.389,7.326,7.326,0,0,0-1-3.792,7.117,7.117,0,0,0-2.76-2.644,8.194,8.194,0,0,0-3.966-.955h-10.02a1.455,1.455,0,0,0-1.49,1.49V44.614a1.384,1.384,0,0,0,.5,1.085,1.7,1.7,0,0,0,1.135.405,1.39,1.39,0,0,0,1.054-.434,1.487,1.487,0,0,0,.4-1.056V35.007h7.863a5.346,5.346,0,0,1,3.229.985,3.905,3.905,0,0,1,1.293,3.352,10.869,10.869,0,0,0,.667,4.429,4.567,4.567,0,0,0,1.823,2.1,1.632,1.632,0,0,0,1.562,0,1.467,1.467,0,0,0,.558-.567,1.5,1.5,0,0,0,.188-.65,1.468,1.468,0,0,0-.743-1.252M423.607,22.314h8.234a4.716,4.716,0,0,1,3.467,1.285,4.294,4.294,0,0,1,1.315,3.238A5.748,5.748,0,0,1,436,29.555a5.032,5.032,0,0,1-1.658,1.867,4.718,4.718,0,0,1-2.22.79h-8.514Z"></path><path fill="#fff" transform="translate(-285.075 -11.469)" d="M497.657,43.613a1.42,1.42,0,0,0-1.072-.452h-12.02V33.819h10.35a1.486,1.486,0,0,0,1.056-.4,1.389,1.389,0,0,0,.434-1.053,1.454,1.454,0,0,0-1.49-1.49h-10.35V22.314h12.02a1.488,1.488,0,0,0,1.056-.4,1.39,1.39,0,0,0,.433-1.053,1.454,1.454,0,0,0-1.49-1.49H482.965a1.455,1.455,0,0,0-1.49,1.49V44.614a1.455,1.455,0,0,0,1.49,1.49h13.621a1.489,1.489,0,0,0,1.056-.4,1.389,1.389,0,0,0,.433-1.053,1.471,1.471,0,0,0-.418-1.038Z"></path><path fill="#fff" transform="translate(-107.265 -61.251)" d="M195.371,103.45H182.3a1.155,1.155,0,0,0-1.138,1.138v22.88a1.144,1.144,0,0,0,.307.785,1.155,1.155,0,0,0,1.662,0,1.149,1.149,0,0,0,.307-.785V116.681h10.371a1.143,1.143,0,0,0,.785-.307,1.093,1.093,0,0,0,.353-.831,1.156,1.156,0,0,0-1.138-1.138H183.44v-8.678h11.931a1.143,1.143,0,0,0,.785-.307,1.093,1.093,0,0,0,.353-.831,1.156,1.156,0,0,0-1.138-1.138"></path><path fill="#fff" transform="translate(-135.794 -61.261)" d="M229.686,103.8a1.153,1.153,0,0,0-.338.834v22.811a1.19,1.19,0,0,0,.307.82,1.127,1.127,0,0,0,.866.352,1.114,1.114,0,0,0,.8-.338,1.286,1.286,0,0,0,.37-.785l0-22.86a1.155,1.155,0,0,0-.338-.834,1.215,1.215,0,0,0-1.67,0"></path><path fill="#fff" transform="translate(-147.971 -61.252)" d="M268.714,103.786a1.06,1.06,0,0,0-.814-.335,1.1,1.1,0,0,0-1.1,1.1v19.683l-14.956-20.389a1.1,1.1,0,0,0-.858-.4,1.077,1.077,0,0,0-.733.289,1.1,1.1,0,0,0-.336.849v22.983a1.012,1.012,0,0,0,.3.731,1.091,1.091,0,0,0,.8.3,1.117,1.117,0,0,0,.767-.289.985.985,0,0,0,.336-.745V107.926l14.8,20.224a1.1,1.1,0,0,0,.911.456,1.19,1.19,0,0,0,.82-.307,1.164,1.164,0,0,0,.353-.9V104.554a1.122,1.122,0,0,0-.288-.766Z"></path><path fill="#fff" transform="translate(-181.163 -61.151)" d="M317.557,104.015a1.113,1.113,0,0,0-1.109-.735,1.26,1.26,0,0,0-.615.143,1.058,1.058,0,0,0-.456.585l-9.335,22.975a1.074,1.074,0,0,0-.05.572,1.126,1.126,0,0,0,.362.66,1.149,1.149,0,0,0,.8.29,1.063,1.063,0,0,0,1.037-.731l2.7-6.791H321.9l2.76,6.767a1.059,1.059,0,0,0,.442.564,1.3,1.3,0,0,0,1.478-.084,1.032,1.032,0,0,0,.368-.827,1.331,1.331,0,0,0-.067-.445Zm3.431,14.691H311.8l4.548-11.431Z"></path><path fill="#fff" transform="translate(-217.106 -61.252)" d="M385.479,103.786a1.06,1.06,0,0,0-.813-.335,1.1,1.1,0,0,0-1.1,1.1v19.683l-14.956-20.39a1.105,1.105,0,0,0-.858-.4,1.075,1.075,0,0,0-.733.289,1.1,1.1,0,0,0-.336.849v22.983a1.011,1.011,0,0,0,.3.731,1.091,1.091,0,0,0,.8.3,1.117,1.117,0,0,0,.767-.29.986.986,0,0,0,.336-.745V107.926l14.8,20.225a1.1,1.1,0,0,0,.911.456,1.189,1.189,0,0,0,.82-.307,1.164,1.164,0,0,0,.353-.9V104.554a1.119,1.119,0,0,0-.289-.767Z"></path><path fill="#fff" transform="translate(-251.07 -60.748)" d="M431.456,106.184a9.979,9.979,0,0,1,5.13-1.377,11.591,11.591,0,0,1,6.58,2.107l.05.029a1.414,1.414,0,0,0,.615.186,1.057,1.057,0,0,0,.867-.445,1.149,1.149,0,0,0-.267-1.648,13.877,13.877,0,0,0-7.846-2.437,12.254,12.254,0,0,0-6.292,1.691,12.478,12.478,0,0,0-4.563,4.653,13.675,13.675,0,0,0,0,13.163,12.478,12.478,0,0,0,4.564,4.653,12.252,12.252,0,0,0,6.292,1.691,13.875,13.875,0,0,0,4.28-.715A13.192,13.192,0,0,0,444.48,126a1.1,1.1,0,0,0,.455-.91,1.074,1.074,0,0,0-.228-.683,1.1,1.1,0,0,0-.91-.455,1.053,1.053,0,0,0-.667.216,11.451,11.451,0,0,1-6.544,2.072,9.987,9.987,0,0,1-8.833-5.2,11.845,11.845,0,0,1,0-11.041,10.029,10.029,0,0,1,3.7-3.82"></path><path fill="#fff" transform="translate(-286.897 -61.251)" d="M499.559,126.668h0a1.112,1.112,0,0,0-.8-.338H486.9v-9.545h10.3a1.145,1.145,0,0,0,.786-.307,1.094,1.094,0,0,0,.352-.831,1.156,1.156,0,0,0-1.138-1.138H486.9v-8.782h11.862a1.144,1.144,0,0,0,.786-.307,1.1,1.1,0,0,0,.353-.831,1.156,1.156,0,0,0-1.139-1.138H485.69a1.155,1.155,0,0,0-1.138,1.138v22.88a1.155,1.155,0,0,0,1.138,1.138h13.069a1.142,1.142,0,0,0,.785-.307,1.093,1.093,0,0,0,.353-.831,1.113,1.113,0,0,0-.338-.8h0"></path><path fill="#fff" transform="translate(-24.501 -51.764)" d="M46.625,90.048a2.622,2.622,0,0,0-5.245,0V112.2a2.622,2.622,0,0,0,5.245,0Z"></path><path fill="#fff" transform="translate(-38.165 -32.487)" d="M69.7,57.492a2.622,2.622,0,1,0-5.245,0V107a2.622,2.622,0,1,0,5.245,0Z"></path><path fill="#fff" transform="translate(-51.83 -44.2)" d="M92.783,77.274a2.622,2.622,0,0,0-5.245,0v33.472a2.622,2.622,0,1,0,5.245,0Z"></path><path fill="#fff" d="M46.449,51.111a2.678,2.678,0,0,0,1.8-.69,28.916,28.916,0,1,0-38.775-.1,2.688,2.688,0,1,0,3.617-3.978,23.54,23.54,0,1,1,31.563.084,2.688,2.688,0,0,0,1.8,4.687"></path></g></svg>